<svg width="160px" height="36px" xmlns="http://www.w3.org/2000/svg" viewBox="-54.18500976562501 -22.018749999999997 608.37001953125 194.0375" style="background: rgba(0, 0, 0, 0);" preserveAspectRatio="xMidYMid"><defs><filter id="editing-hole" x="-100%" y="-100%" width="300%" height="300%"><feFlood flood-color="#000000" result="black"></feFlood><feMorphology operator="dilate" radius="2" in="SourceGraphic" result="erode"></feMorphology><feGaussianBlur in="erode" stdDeviation="4" result="blur"></feGaussianBlur><feOffset in="blur" dx="2" dy="2" result="offset"></feOffset><feComposite operator="atop" in="offset" in2="black" result="merge"></feComposite><feComposite operator="in" in="merge" in2="SourceGraphic" result="inner-shadow"></feComposite></filter></defs><g filter="url(#editing-hole)"><g transform="translate(31.299999237060547, 111.81499862670898)"><path d="M49.12-22.36L49.12-71.97L61.04-71.97L61.04 0L49.12 0L24.90-42.58L24.90-65.04L49.12-22.36ZM20.90 0L8.98 0L8.98-71.97L20.90-71.97L20.90 0ZM89.84-71.97L89.84-37.50L89.84-37.50Q89.84-29.98 90.82-24.76L90.82-24.76L90.82-24.76Q91.80-19.53 93.65-16.16L93.65-16.16L93.65-16.16Q95.51-12.79 98.10-11.13L98.10-11.13L98.10-11.13Q100.68-9.47 103.91-9.18L103.91-9.18L103.91 0.49L103.91 0.49Q97.95 0.10 93.12-2.39L93.12-2.39L93.12-2.39Q88.28-4.88 84.96-9.52L84.96-9.52L84.96-9.52Q81.64-14.16 79.79-20.90L79.79-20.90L79.79-20.90Q77.93-27.64 77.93-36.33L77.93-36.33L77.93-71.97L89.84-71.97ZM122.07-71.97L133.89-71.97L133.89-36.33L133.89-36.33Q133.89-27.64 132.03-20.90L132.03-20.90L132.03-20.90Q130.18-14.16 126.81-9.52L126.81-9.52L126.81-9.52Q123.44-4.88 118.65-2.39L118.65-2.39L118.65-2.39Q113.87 0.10 107.91 0.49L107.91 0.49L107.91-9.18L107.91-9.18Q111.13-9.57 113.72-11.18L113.72-11.18L113.72-11.18Q116.31-12.79 118.16-16.11L118.16-16.11L118.16-16.11Q120.02-19.43 121.04-24.66L121.04-24.66L121.04-24.66Q122.07-29.88 122.07-37.50L122.07-37.50L122.07-71.97ZM150.68 0L150.68-71.97L162.40-71.97L162.40 0L150.68 0ZM183.11-28.32L199.51 0L187.11 0L173.54-26.07L173.54-26.07Q173.24-26.07 172.90-26.03L172.90-26.03L172.90-26.03Q172.56-25.98 171.88-25.98L171.88-25.98L171.88-25.98Q171.19-25.98 169.87-25.98L169.87-25.98L169.87-25.98Q168.55-25.98 166.41-25.98L166.41-25.98L166.41-34.57L173.05-34.57L173.05-34.57Q175.20-34.57 177.34-35.30L177.34-35.30L177.34-35.30Q179.49-36.04 181.25-37.70L181.25-37.70L181.25-37.70Q183.01-39.36 184.08-42.33L184.08-42.33L184.08-42.33Q185.16-45.31 185.16-49.71L185.16-49.71L185.16-49.71Q185.16-51.46 184.67-53.76L184.67-53.76L184.67-53.76Q184.18-56.05 182.67-58.15L182.67-58.15L182.67-58.15Q181.15-60.25 178.42-61.67L178.42-61.67L178.42-61.67Q175.68-63.09 171.19-63.09L171.19-63.09L166.41-63.09L166.41-71.97L171.39-71.97L171.39-71.97Q175.98-71.97 180.47-70.51L180.47-70.51L180.47-70.51Q184.96-69.04 188.53-66.11L188.53-66.11L188.53-66.11Q192.09-63.18 194.29-59.03L194.29-59.03L194.29-59.03Q196.48-54.88 196.48-49.71L196.48-49.71L196.48-49.71Q196.48-41.89 192.87-36.43L192.87-36.43L192.87-36.43Q189.26-30.96 183.11-28.32L183.11-28.32ZM239.36-71.97L239.36 0L227.44 0L227.44-55.18L217.58-45.31L209.18-53.71L227.44-71.97L239.36-71.97ZM282.62-63.48L282.62-63.48L282.62-63.48Q279.00-63.48 276.07-62.11L276.07-62.11L276.07-62.11Q273.14-60.74 271.09-57.47L271.09-57.47L271.09-57.47Q269.04-54.20 267.92-49.02L267.92-49.02L267.92-49.02Q266.80-43.85 266.70-36.33L266.70-36.33L266.70-36.33Q266.80-30.37 267.48-25.78L267.48-25.78L267.48-25.78Q268.16-21.19 269.53-17.97L269.53-17.97L264.16-6.54L264.16-6.54Q259.67-11.13 257.23-18.51L257.23-18.51L257.23-18.51Q254.79-25.88 254.79-36.33L254.79-36.33L254.79-36.33Q254.79-45.41 256.69-52.29L256.69-52.29L256.69-52.29Q258.59-59.18 262.16-63.77L262.16-63.77L262.16-63.77Q265.72-68.36 270.85-70.75L270.85-70.75L270.85-70.75Q275.98-73.14 282.32-73.14L282.32-73.14L282.32-73.14Q289.06-73.14 294.14-70.61L294.14-70.61L289.84-61.43L289.84-61.43Q286.62-63.48 282.62-63.48ZM294.82-55.08L300.20-66.41L300.20-66.41Q304.98-61.91 307.47-54.39L307.47-54.39L307.47-54.39Q309.96-46.88 309.96-36.33L309.96-36.33L309.96-36.33Q309.96-27.25 308.06-20.31L308.06-20.31L308.06-20.31Q306.15-13.38 302.54-8.79L302.54-8.79L302.54-8.79Q298.93-4.20 293.85-1.86L293.85-1.86L293.85-1.86Q288.77 0.49 282.32 0.49L282.32 0.49L282.32 0.49Q275.39 0.49 270.02-2.25L270.02-2.25L274.41-11.52L274.41-11.52Q277.44-9.08 282.03-9.08L282.03-9.08L282.03-9.08Q285.64-9.08 288.62-10.50L288.62-10.50L288.62-10.50Q291.60-11.91 293.65-15.14L293.65-15.14L293.65-15.14Q295.70-18.36 296.83-23.58L296.83-23.58L296.83-23.58Q297.95-28.81 298.05-36.33L298.05-36.33L298.05-36.33Q297.95-42.48 297.17-47.07L297.17-47.07L297.17-47.07Q296.39-51.66 294.92-54.88L294.92-54.88L294.92-54.88Q294.82-54.98 294.82-55.08L294.82-55.08ZM369.24-50.59L369.24-50.59L369.24-50.59Q369.24-46.78 367.58-42.72L367.58-42.72L367.58-42.72Q365.92-38.67 363.18-34.72L363.18-34.72L363.18-34.72Q360.45-30.76 357.18-27.05L357.18-27.05L357.18-27.05Q353.91-23.34 350.63-20.02L350.63-20.02L350.63-20.02Q347.36-16.70 344.48-14.01L344.48-14.01L344.48-14.01Q341.60-11.33 339.75-9.47L339.75-9.47L370.31-9.47L370.31 0L325.59 0L325.59-10.94L325.59-10.94Q327.34-12.50 330.47-15.19L330.47-15.19L330.47-15.19Q333.59-17.87 337.21-21.19L337.21-21.19L337.21-21.19Q340.82-24.51 344.43-28.27L344.43-28.27L344.43-28.27Q348.05-32.03 351.03-35.89L351.03-35.89L351.03-35.89Q354.00-39.75 355.91-43.46L355.91-43.46L355.91-43.46Q357.81-47.17 357.81-50.49L357.81-50.49L357.81-50.49Q357.81-53.91 356.59-56.20L356.59-56.20L356.59-56.20Q355.37-58.50 353.52-59.96L353.52-59.96L353.52-59.96Q351.66-61.43 349.46-62.01L349.46-62.01L349.46-62.01Q347.27-62.60 345.31-62.60L345.31-62.60L345.31-62.60Q341.50-62.60 339.01-62.35L339.01-62.35L339.01-62.35Q336.52-62.11 334.67-61.67L334.67-61.67L334.67-61.67Q332.81-61.23 331.35-60.45L331.35-60.45L331.35-60.45Q329.88-59.67 328.22-58.69L328.22-58.69L324.80-65.92L324.80-65.92Q326.56-67.48 329.15-68.75L329.15-68.75L329.15-68.75Q331.74-70.02 334.52-70.80L334.52-70.80L334.52-70.80Q337.30-71.58 340.04-72.02L340.04-72.02L340.04-72.02Q342.77-72.46 345.12-72.46L345.12-72.46L345.12-72.46Q351.46-72.46 356.01-70.41L356.01-70.41L356.01-70.41Q360.55-68.36 363.48-65.19L363.48-65.19L363.48-65.19Q366.41-62.01 367.82-58.11L367.82-58.11L367.82-58.11Q369.24-54.20 369.24-50.59ZM400.49 0L389.55 0L414.55-62.40L383.20-62.40L383.20-71.97L428.42-71.97L400.49 0Z" fill="#211f1f"></path></g></g><style>text {
<!--  font-size: 160px;-->
  font-family: Arial Black;
  dominant-baseline: central;
  text-anchor: middle;
}</style></svg>